<svg width="80" height="80" viewBox="0 0 80 80" fill="none" xmlns="http://www.w3.org/2000/svg">
<circle cx="40" cy="40" r="40" fill="#428876"/>
<g clip-path="url(#clip0_354_1519)">
<path d="M47.7682 32.9023C48.447 32.2265 48.447 31.1253 47.7682 30.4496L45.271 27.9504L45.2745 27.9539C44.6136 27.2925 43.4775 26.1555 41.8699 24.5502C41.1125 23.8101 39.8871 23.8172 39.1368 24.5681L25.068 38.6371C24.888 38.8161 24.7452 39.0288 24.6477 39.2633C24.5502 39.4977 24.5 39.749 24.5 40.0029C24.5 40.2568 24.5502 40.5082 24.6477 40.7426C24.7452 40.977 24.888 41.1898 25.068 41.3687L39.1333 55.4342C39.4959 55.7965 39.9874 56 40.4998 56C41.0122 56 41.5037 55.7965 41.8663 55.4342L47.7646 49.5349C48.4434 48.8591 48.4434 47.7579 47.7646 47.0822C47.4386 46.7575 46.9974 46.5752 46.5374 46.5752C46.0775 46.5752 45.6363 46.7575 45.3103 47.0822L40.8445 51.5585C40.6588 51.7444 40.3694 51.7444 40.1836 51.5585L28.9478 40.3247C28.7621 40.1388 28.7621 39.8492 28.9478 39.6633L40.18 28.4295C40.1943 28.4152 40.2122 28.4044 40.2265 28.3901C40.4122 28.2436 40.6695 28.2579 40.841 28.4295L45.3138 32.9023C45.9926 33.5816 47.093 33.5816 47.7682 32.9023ZM36.7754 40.0744C36.7754 41.0815 37.1755 42.0473 37.8877 42.7594C38.5999 43.4714 39.5658 43.8715 40.573 43.8715C41.5802 43.8715 42.5462 43.4714 43.2584 42.7594C43.9706 42.0473 44.3707 41.0815 44.3707 40.0744C44.3707 39.0674 43.9706 38.1016 43.2584 37.3895C42.5462 36.6774 41.5802 36.2774 40.573 36.2774C39.5658 36.2774 38.5999 36.6774 37.8877 37.3895C37.1755 38.1016 36.7754 39.0674 36.7754 40.0744ZM55.9315 38.6943L51.5408 34.3217C50.8621 33.6459 49.7617 33.6459 49.0865 34.3253C48.9251 34.486 48.797 34.6771 48.7097 34.8876C48.6223 35.0981 48.5773 35.3237 48.5773 35.5516C48.5773 35.7795 48.6223 36.0052 48.7097 36.2156C48.797 36.4261 48.9251 36.6172 49.0865 36.778L52.0517 39.7419C52.2375 39.9279 52.2375 40.2175 52.0517 40.4034L49.1294 43.3244C48.968 43.4852 48.8399 43.6763 48.7525 43.8868C48.6652 44.0972 48.6202 44.3229 48.6202 44.5508C48.6202 44.7787 48.6652 45.0043 48.7525 45.2148C48.8399 45.4253 48.968 45.6164 49.1294 45.7772C49.4554 46.1018 49.8966 46.2841 50.3565 46.2841C50.8165 46.2841 51.2577 46.1018 51.5837 45.7772L55.9351 41.4259C56.1145 41.2466 56.2567 41.0335 56.3537 40.799C56.4506 40.5645 56.5003 40.3132 56.5 40.0594C56.4997 39.8056 56.4493 39.5544 56.3517 39.3202C56.2542 39.0859 56.1114 38.8732 55.9315 38.6943Z" fill="white"/>
</g>
<defs>
<clipPath id="clip0_354_1519">
<rect width="32" height="32" fill="white" transform="translate(24.5 24)"/>
</clipPath>
</defs>
</svg>
