<svg width="48" height="48" viewBox="0 0 48 48" fill="none" xmlns="http://www.w3.org/2000/svg">
<circle cx="24" cy="24" r="24" fill="#428876"/>
<path fill-rule="evenodd" clip-rule="evenodd" d="M24 12.5C20.8758 12.5 20.4868 12.5134 19.2582 12.5709C15.0798 12.7626 12.7607 15.0798 12.569 19.2582C12.5134 20.4868 12.5 20.8778 12.5 24C12.5 27.1242 12.5134 27.5152 12.569 28.7418C12.7607 32.9183 15.0798 35.2393 19.2582 35.431C20.4868 35.4866 20.8758 35.5 24 35.5C27.1242 35.5 27.5152 35.4866 28.7437 35.431C32.9144 35.2393 35.2432 32.9221 35.431 28.7418C35.4866 27.5152 35.5 27.1242 35.5 24C35.5 20.8778 35.4866 20.4868 35.431 19.2582C35.2432 15.0856 32.9221 12.7607 28.7437 12.5709C27.5152 12.5134 27.1242 12.5 24 12.5ZM24.0001 14.5748C27.0706 14.5748 27.4348 14.5863 28.648 14.6419C31.7664 14.7837 33.2193 16.2615 33.363 19.355C33.4167 20.5682 33.4282 20.9305 33.4282 24.001C33.4282 27.0715 33.4167 27.4357 33.363 28.647C33.2193 31.7386 31.7684 33.2202 28.648 33.362C27.4348 33.4157 27.0725 33.4291 24.0001 33.4291C20.9296 33.4291 20.5654 33.4176 19.3541 33.362C16.2299 33.2182 14.7829 31.7347 14.6391 28.647C14.5854 27.4357 14.572 27.0715 14.572 24.001C14.572 20.9305 14.5854 20.5663 14.6391 19.355C14.7809 16.2596 16.2338 14.7818 19.3541 14.64C20.5654 14.5844 20.9296 14.5748 24.0001 14.5748ZM18.0956 24.0008C18.0956 20.7387 20.7406 18.0956 24.0008 18.0956C27.2611 18.0956 29.9061 20.7406 29.9061 24.0008C29.9061 27.263 27.2611 29.9061 24.0008 29.9061C20.7406 29.9061 18.0956 27.263 18.0956 24.0008ZM24.0009 27.8343C21.883 27.8343 20.1676 26.1189 20.1676 24.0009C20.1676 21.8849 21.883 20.1676 24.0009 20.1676C26.1169 20.1676 27.8362 21.883 27.8362 24.0009C27.8362 26.1189 26.1169 27.8343 24.0009 27.8343ZM28.7561 17.864C28.7561 17.1012 29.3752 16.484 30.1361 16.484C30.9009 16.484 31.518 17.1012 31.518 17.864C31.518 18.6268 30.8989 19.244 30.1361 19.244C29.3733 19.244 28.7561 18.6249 28.7561 17.864Z" fill="white"/>
</svg>
