<svg width="48" height="48" viewBox="0 0 48 48" fill="none" xmlns="http://www.w3.org/2000/svg">
<circle cx="24" cy="24" r="24" fill="#428876"/>
<path d="M16.935 15.0567C16.9347 15.7344 16.6652 16.3843 16.1857 16.8633C15.7062 17.3423 15.0561 17.6112 14.3784 17.6108C13.7006 17.6105 13.0508 17.3409 12.5718 16.8615C12.0928 16.382 11.8239 15.7319 11.8242 15.0541C11.8246 14.3764 12.0941 13.7266 12.5736 13.2476C13.0531 12.7686 13.7032 12.4997 14.3809 12.5C15.0586 12.5003 15.7085 12.7699 16.1875 13.2494C16.6665 13.7288 16.9354 14.379 16.935 15.0567ZM17.0117 19.5031H11.9009V35.5H17.0117V19.5031ZM25.0868 19.5031H20.0015V35.5H25.0357V27.1055C25.0357 22.4291 31.1304 21.9946 31.1304 27.1055V35.5H36.1773V25.3678C36.1773 17.4843 27.1567 17.7782 25.0357 21.6497L25.0868 19.5031Z" fill="white"/>
</svg>
