<svg width="25" height="25" viewBox="0 0 25 25" fill="none" xmlns="http://www.w3.org/2000/svg">
<path d="M12.9286 12.668C13.4786 12.668 13.9496 12.472 14.3416 12.08C14.7329 11.6886 14.9286 11.218 14.9286 10.668C14.9286 10.118 14.7329 9.64697 14.3416 9.25497C13.9496 8.86364 13.4786 8.66797 12.9286 8.66797C12.3786 8.66797 11.9079 8.86364 11.5166 9.25497C11.1246 9.64697 10.9286 10.118 10.9286 10.668C10.9286 11.218 11.1246 11.6886 11.5166 12.08C11.9079 12.472 12.3786 12.668 12.9286 12.668ZM12.9286 22.293C12.7953 22.293 12.6619 22.268 12.5286 22.218C12.3953 22.168 12.2786 22.1013 12.1786 22.018C9.74526 19.868 7.92859 17.8723 6.72859 16.031C5.52859 14.189 4.92859 12.468 4.92859 10.868C4.92859 8.36797 5.73292 6.3763 7.34159 4.89297C8.94959 3.40964 10.8119 2.66797 12.9286 2.66797C15.0453 2.66797 16.9076 3.40964 18.5156 4.89297C20.1243 6.3763 20.9286 8.36797 20.9286 10.868C20.9286 12.468 20.3286 14.189 19.1286 16.031C17.9286 17.8723 16.1119 19.868 13.6786 22.018C13.5786 22.1013 13.4619 22.168 13.3286 22.218C13.1953 22.268 13.0619 22.293 12.9286 22.293Z" fill="#377781"/>
</svg>
