<svg width="383" height="82" viewBox="0 0 383 82" fill="none" xmlns="http://www.w3.org/2000/svg">
<path d="M76.04 48.6445H100.826V81.0918H76.04V48.6445Z" fill="white"/>
<path d="M75.7095 0.00976562H112.302C119.47 0.00976562 125.281 5.82054 125.281 12.9885V45.0754H75.7095V0.00976562Z" fill="white"/>
<path d="M0 12.9885C0 5.82054 5.81077 0.00976562 12.9787 0.00976562H72.104V81.128H0V12.9885Z" fill="white"/>
<path fill-rule="evenodd" clip-rule="evenodd" d="M167.482 4.94208C165.695 3.3871 163.649 2.15583 161.438 1.30356C159.214 0.441855 156.699 0.0109986 153.893 0.0109986C151.811 -0.0110377 149.735 0.262417 147.729 0.823216C145.995 1.29979 144.364 2.09461 142.92 3.16716C141.584 4.18049 140.511 5.50061 139.793 7.01596C139.029 8.66288 138.649 10.4618 138.682 12.2769C138.682 14.0003 138.972 15.453 139.554 16.6349C140.155 17.8428 141.042 18.8853 142.139 19.6715C143.433 20.5904 144.863 21.3006 146.377 21.7763C148.061 22.3398 150.026 22.8812 152.271 23.4007C154.394 23.8817 156.268 24.3628 157.893 24.8438C159.313 25.2377 160.677 25.8136 161.949 26.5569C162.94 27.1291 163.776 27.9336 164.386 28.9008C164.926 29.8038 165.196 30.9163 165.196 32.2384C165.196 34.7245 164.234 36.5785 162.31 37.8003C160.386 39.0221 157.721 39.6336 154.314 39.635C151.067 39.635 148.121 39.0633 145.476 37.9199C142.831 36.7764 140.727 35.3835 139.162 33.7412L137.119 37.1695C141.848 41.2986 147.56 43.3629 154.254 43.3622C156.319 43.3778 158.378 43.146 160.387 42.6716C162.13 42.2721 163.783 41.5475 165.258 40.5359C166.593 39.6051 167.685 38.368 168.443 36.9283C169.204 35.4852 169.585 33.7817 169.587 31.8178C169.587 29.8938 169.246 28.2803 168.565 26.9774C167.864 25.6534 166.854 24.5188 165.619 23.6708C164.196 22.701 162.635 21.9511 160.989 21.4464C158.973 20.8096 156.926 20.2777 154.856 19.8529C152.811 19.4117 151.037 18.9706 149.533 18.5294C148.228 18.1731 146.975 17.6478 145.806 16.9668C144.912 16.4542 144.166 15.7183 143.642 14.8311C143.18 14.0106 142.95 12.9586 142.951 11.675C142.951 9.23002 143.813 7.29631 145.536 5.87388C147.259 4.45145 150.025 3.73957 153.833 3.7382C156.359 3.7382 158.633 4.15941 160.657 5.00187C162.681 5.84434 164.294 6.94656 165.497 8.30852L167.482 4.94208ZM204.82 18.8304L196.704 38.1322L181.191 0.311969H176.741L194.719 43.0014H198.448L207.467 21.8979L216.424 43.0014H220.153L238.191 0.311969H233.62L218.168 38.1322L209.992 18.8304L217.446 0.612939H213.478L207.405 15.7649L201.394 0.612939H197.365L204.82 18.8304ZM253.582 43.0014V0.37176H249.434V43.0014H253.582ZM265.788 43.0014H299.639V39.2742H271.018L299.699 3.61862V0.311969H266.268V4.03917H294.827L265.788 39.6948V43.0014ZM316.291 39.2742V22.9802H337.215V19.4323H316.291V4.03917H340.283V0.311969H312.144V43.0014H340.823V39.2742H316.291ZM382.972 43.0014V39.2742H358.261V0.311969H354.111V43.0014H382.972Z" fill="white"/>
<line x1="137.119" y1="49.3534" x2="382.972" y2="49.3534" stroke="#86E2EF" stroke-width="2.78545"/>
<path d="M182.814 67.5455C182.518 66.9225 182.089 66.4425 181.527 66.1054C180.965 65.7582 180.312 65.5845 179.566 65.5845C178.821 65.5845 178.147 65.7582 177.544 66.1054C176.952 66.4425 176.482 66.9327 176.134 67.5761C175.797 68.2094 175.629 68.9447 175.629 69.7822C175.629 70.6197 175.797 71.3551 176.134 71.9883C176.482 72.6215 176.952 73.1118 177.544 73.459C178.147 73.7961 178.821 73.9646 179.566 73.9646C180.608 73.9646 181.466 73.6531 182.14 73.0301C182.814 72.4071 183.207 71.5645 183.32 70.5023H179.061V69.3686H184.806V70.441C184.724 71.3193 184.448 72.1262 183.978 72.8615C183.509 73.5867 182.891 74.1637 182.125 74.5927C181.359 75.0115 180.506 75.2208 179.566 75.2208C178.575 75.2208 177.672 74.991 176.855 74.5314C176.037 74.0616 175.389 73.4131 174.909 72.5858C174.439 71.7585 174.204 70.824 174.204 69.7822C174.204 68.7405 174.439 67.8059 174.909 66.9787C175.389 66.1412 176.037 65.4926 176.855 65.033C177.672 64.5632 178.575 64.3283 179.566 64.3283C180.7 64.3283 181.701 64.6092 182.569 65.1709C183.447 65.7326 184.086 66.5242 184.484 67.5455H182.814ZM191.49 75.2361C190.499 75.2361 189.595 75.0063 188.778 74.5467C187.961 74.0769 187.313 73.4284 186.833 72.6011C186.363 71.7636 186.128 70.824 186.128 69.7822C186.128 68.7405 186.363 67.8059 186.833 66.9787C187.313 66.1412 187.961 65.4926 188.778 65.033C189.595 64.5632 190.499 64.3283 191.49 64.3283C192.491 64.3283 193.4 64.5632 194.217 65.033C195.034 65.4926 195.678 66.1361 196.147 66.9633C196.617 67.7906 196.852 68.7303 196.852 69.7822C196.852 70.8342 196.617 71.7738 196.147 72.6011C195.678 73.4284 195.034 74.0769 194.217 74.5467C193.4 75.0063 192.491 75.2361 191.49 75.2361ZM191.49 74.0259C192.236 74.0259 192.905 73.8522 193.497 73.505C194.1 73.1577 194.569 72.6624 194.906 72.0189C195.254 71.3755 195.427 70.6299 195.427 69.7822C195.427 68.9243 195.254 68.1787 194.906 67.5455C194.569 66.9021 194.105 66.4067 193.512 66.0595C192.92 65.7122 192.246 65.5386 191.49 65.5386C190.734 65.5386 190.06 65.7122 189.468 66.0595C188.875 66.4067 188.406 66.9021 188.058 67.5455C187.721 68.1787 187.553 68.9243 187.553 69.7822C187.553 70.6299 187.721 71.3755 188.058 72.0189C188.406 72.6624 188.875 73.1577 189.468 73.505C190.07 73.8522 190.744 74.0259 191.49 74.0259ZM208.813 64.4509V65.5845H204.171V69.1847H207.94V70.3184H204.171V75.1289H202.777V64.4509H208.813ZM216.119 75.1289L213.576 70.7627H211.891V75.1289H210.497V64.4509H213.944C214.751 64.4509 215.43 64.5887 215.981 64.8645C216.543 65.1403 216.962 65.5131 217.237 65.9829C217.513 66.4527 217.651 66.9889 217.651 67.5915C217.651 68.3268 217.437 68.9754 217.008 69.5371C216.589 70.0988 215.956 70.4716 215.108 70.6555L217.789 75.1289H216.119ZM211.891 69.6443H213.944C214.699 69.6443 215.266 69.4605 215.644 69.0928C216.022 68.7149 216.211 68.2145 216.211 67.5915C216.211 66.9582 216.022 66.468 215.644 66.1207C215.276 65.7735 214.71 65.5999 213.944 65.5999H211.891V69.6443ZM224.658 75.2361C223.668 75.2361 222.764 75.0063 221.947 74.5467C221.13 74.0769 220.481 73.4284 220.001 72.6011C219.531 71.7636 219.296 70.824 219.296 69.7822C219.296 68.7405 219.531 67.8059 220.001 66.9787C220.481 66.1412 221.13 65.4926 221.947 65.033C222.764 64.5632 223.668 64.3283 224.658 64.3283C225.659 64.3283 226.568 64.5632 227.385 65.033C228.202 65.4926 228.846 66.1361 229.316 66.9633C229.786 67.7906 230.02 68.7303 230.02 69.7822C230.02 70.8342 229.786 71.7738 229.316 72.6011C228.846 73.4284 228.202 74.0769 227.385 74.5467C226.568 75.0063 225.659 75.2361 224.658 75.2361ZM224.658 74.0259C225.404 74.0259 226.073 73.8522 226.665 73.505C227.268 73.1577 227.738 72.6624 228.075 72.0189C228.422 71.3755 228.596 70.6299 228.596 69.7822C228.596 68.9243 228.422 68.1787 228.075 67.5455C227.738 66.9021 227.273 66.4067 226.681 66.0595C226.088 65.7122 225.414 65.5386 224.658 65.5386C223.903 65.5386 223.229 65.7122 222.636 66.0595C222.044 66.4067 221.574 66.9021 221.227 67.5455C220.89 68.1787 220.721 68.9243 220.721 69.7822C220.721 70.6299 220.89 71.3755 221.227 72.0189C221.574 72.6624 222.044 73.1577 222.636 73.505C223.239 73.8522 223.913 74.0259 224.658 74.0259ZM242.692 64.5275V75.1289H241.298V67.2238L237.774 75.1289H236.794L233.255 67.2085V75.1289H231.861V64.5275H233.362L237.284 73.2905L241.206 64.5275H242.692ZM250.32 73.9186H255.529V75.1289H248.666V74.0259L253.844 65.6611H248.727V64.4509H255.499V65.5539L250.32 73.9186ZM258.823 65.5845V69.1541H262.715V70.3031H258.823V73.9799H263.174V75.1289H257.429V64.4355H263.174V65.5845H258.823ZM270.906 75.1289L268.363 70.7627H266.678V75.1289H265.284V64.4509H268.731C269.537 64.4509 270.217 64.5887 270.768 64.8645C271.33 65.1403 271.749 65.5131 272.024 65.9829C272.3 66.4527 272.438 66.9889 272.438 67.5915C272.438 68.3268 272.224 68.9754 271.795 69.5371C271.376 70.0988 270.743 70.4716 269.895 70.6555L272.576 75.1289H270.906ZM266.678 69.6443H268.731C269.486 69.6443 270.053 69.4605 270.431 69.0928C270.809 68.7149 270.998 68.2145 270.998 67.5915C270.998 66.9582 270.809 66.468 270.431 66.1207C270.063 65.7735 269.497 65.5999 268.731 65.5999H266.678V69.6443ZM279.445 75.2361C278.455 75.2361 277.551 75.0063 276.734 74.5467C275.917 74.0769 275.268 73.4284 274.788 72.6011C274.318 71.7636 274.083 70.824 274.083 69.7822C274.083 68.7405 274.318 67.8059 274.788 66.9787C275.268 66.1412 275.917 65.4926 276.734 65.033C277.551 64.5632 278.455 64.3283 279.445 64.3283C280.446 64.3283 281.355 64.5632 282.172 65.033C282.989 65.4926 283.633 66.1361 284.103 66.9633C284.572 67.7906 284.807 68.7303 284.807 69.7822C284.807 70.8342 284.572 71.7738 284.103 72.6011C283.633 73.4284 282.989 74.0769 282.172 74.5467C281.355 75.0063 280.446 75.2361 279.445 75.2361ZM279.445 74.0259C280.191 74.0259 280.86 73.8522 281.452 73.505C282.055 73.1577 282.525 72.6624 282.862 72.0189C283.209 71.3755 283.383 70.6299 283.383 69.7822C283.383 68.9243 283.209 68.1787 282.862 67.5455C282.525 66.9021 282.06 66.4067 281.468 66.0595C280.875 65.7122 280.201 65.5386 279.445 65.5386C278.69 65.5386 278.016 65.7122 277.423 66.0595C276.831 66.4067 276.361 66.9021 276.014 67.5455C275.677 68.1787 275.508 68.9243 275.508 69.7822C275.508 70.6299 275.677 71.3755 276.014 72.0189C276.361 72.6624 276.831 73.1577 277.423 73.505C278.026 73.8522 278.7 74.0259 279.445 74.0259ZM297.304 64.4509V65.5845H294.394V75.1289H293V65.5845H290.073V64.4509H297.304ZM303.862 75.2361C302.871 75.2361 301.967 75.0063 301.15 74.5467C300.333 74.0769 299.684 73.4284 299.204 72.6011C298.735 71.7636 298.5 70.824 298.5 69.7822C298.5 68.7405 298.735 67.8059 299.204 66.9787C299.684 66.1412 300.333 65.4926 301.15 65.033C301.967 64.5632 302.871 64.3283 303.862 64.3283C304.863 64.3283 305.772 64.5632 306.589 65.033C307.406 65.4926 308.049 66.1361 308.519 66.9633C308.989 67.7906 309.224 68.7303 309.224 69.7822C309.224 70.8342 308.989 71.7738 308.519 72.6011C308.049 73.4284 307.406 74.0769 306.589 74.5467C305.772 75.0063 304.863 75.2361 303.862 75.2361ZM303.862 74.0259C304.607 74.0259 305.276 73.8522 305.869 73.505C306.471 73.1577 306.941 72.6624 307.278 72.0189C307.625 71.3755 307.799 70.6299 307.799 69.7822C307.799 68.9243 307.625 68.1787 307.278 67.5455C306.941 66.9021 306.476 66.4067 305.884 66.0595C305.292 65.7122 304.617 65.5386 303.862 65.5386C303.106 65.5386 302.432 65.7122 301.839 66.0595C301.247 66.4067 300.777 66.9021 300.43 67.5455C300.093 68.1787 299.924 68.9243 299.924 69.7822C299.924 70.6299 300.093 71.3755 300.43 72.0189C300.777 72.6624 301.247 73.1577 301.839 73.505C302.442 73.8522 303.116 74.0259 303.862 74.0259ZM325.98 64.5275V75.1289H324.586V67.2238L321.062 75.1289H320.081L316.543 67.2085V75.1289H315.148V64.5275H316.65L320.572 73.2905L324.494 64.5275H325.98ZM337.168 64.4509L333.139 75.1289H331.531L327.501 64.4509H328.987L332.342 73.6582L335.698 64.4509H337.168ZM345.836 67.5761C345.836 68.4647 345.53 69.2052 344.917 69.7975C344.314 70.3797 343.39 70.6708 342.144 70.6708H340.091V75.1289H338.697V64.4509H342.144C343.349 64.4509 344.263 64.7419 344.886 65.3241C345.519 65.9063 345.836 66.6569 345.836 67.5761ZM342.144 69.5218C342.92 69.5218 343.492 69.3533 343.86 69.0162C344.227 68.6792 344.411 68.1992 344.411 67.5761C344.411 66.2586 343.656 65.5999 342.144 65.5999H340.091V69.5218H342.144Z" fill="white"/>
</svg>
