<svg id="colored" xmlns="http://www.w3.org/2000/svg" width="65" height="65" viewBox="0 0 1192.63 1091.06" >
    <defs>
        <style>
            .cls-1 {
                fill: #2f4f4f;
            }
            .cls-1, .cls-2, .cls-3 {
                stroke: #000;
                stroke-width: 1px;
            }
            .cls-1, .cls-2, .cls-3, .cls-4 {
                fill-rule: evenodd;
            }

            .cls-2, .cls-4 {
                fill: #377781;
            }

            .cls-3 {
                fill: #86e2ef;
            }
        </style>
    </defs>
    <g>
        <path
            class="cls-1"
            d="M1773.15,1705.42h541.67V2411.7H1689.81V1788.76A83.337,83.337,0,0,1,1773.15,1705.42Z"
            transform="translate(-1653.78 -1704.94)"></path>
        <path
            class="cls-2"
            d="M2344,1705.42h348.59a83.337,83.337,0,0,1,83.34,83.34v316.45H2344V1705.42Z"
            transform="translate(-1653.78 -1704.94)"></path>
        <path
            class="cls-3"
            d="M2344,2131.01h229.16v282H2344v-282Z"
            transform="translate(-1653.78 -1704.94)"></path>
    </g>
    <path
        id="SWIZEL_copy"
        data-name="SWIZEL copy"
        class="cls-4"
        d="M1801.08,2609.64a98.866,98.866,0,0,0-29.32-17.65q-16.185-6.27-36.6-6.27a106.85,106.85,0,0,0-29.9,3.94,70.416,70.416,0,0,0-23.33,11.37,50.676,50.676,0,0,0-15.17,18.67,58.167,58.167,0,0,0-5.39,25.52q0,12.54,4.23,21.14a40.117,40.117,0,0,0,12.54,14.73,73.638,73.638,0,0,0,20.56,10.21q12.255,4.1,28.59,7.88,15.45,3.5,27.27,7a83.039,83.039,0,0,1,19.68,8.31,34.222,34.222,0,0,1,11.82,11.37q3.93,6.57,3.93,16.19,0,18.09-14,26.98t-38.79,8.9q-23.625,0-42.87-8.32t-30.63-20.27l-9.91,16.63q34.41,30.045,83.12,30.04a125.353,125.353,0,0,0,29.75-3.35,69.05,69.05,0,0,0,23.63-10.36,49.4,49.4,0,0,0,15.45-17.5q5.535-10.5,5.55-24.79,0-14-4.96-23.48a44.97,44.97,0,0,0-14.29-16.04,83.149,83.149,0,0,0-22.46-10.79,296.451,296.451,0,0,0-29.75-7.73q-14.88-3.21-25.82-6.42a75.337,75.337,0,0,1-18.08-7.58,28.888,28.888,0,0,1-10.5-10.36q-3.36-5.97-3.35-15.31,0-17.79,12.54-28.14t40.25-10.36q18.375,0,33.1,6.13t23.48,16.04Zm181.12,67.37-39.37,93.63-75.25-183.46h-21.59l87.21,207.08h18.09l43.75-102.37,43.45,102.37h18.09l87.5-207.08h-22.17l-74.96,183.46-39.66-93.63,36.16-88.37H2024.2l-29.46,73.5-29.16-73.5h-19.54Zm236.54,117.25V2587.47h-20.12v206.79h20.12Zm59.21,0h164.21v-18.08H2303.32l139.13-172.96v-16.04H2280.28v18.08h138.54l-140.87,172.96v16.04Zm244.99-18.08v-79.04h101.5v-17.21h-101.5v-74.67h116.38v-18.08h-136.5v207.08h139.12v-18.08h-119Zm323.46,18.08v-18.08H2726.53v-189H2706.4v207.08h140Z"
        transform="translate(-1653.78 -1704.94)"></path>
</svg>