<svg width="80" height="80" viewBox="0 0 80 80" fill="none" xmlns="http://www.w3.org/2000/svg">
<circle cx="40" cy="40" r="40" fill="#428876"/>
<g clip-path="url(#clip0_322_832)">
<path fill-rule="evenodd" clip-rule="evenodd" d="M45.8227 28.0172C47.6013 26.9812 49.8333 28.2626 49.8333 30.3212V34.6666C50.3586 34.6666 50.8788 34.77 51.3641 34.971C51.8494 35.1721 52.2903 35.4667 52.6617 35.8381C53.0332 36.2096 53.3278 36.6505 53.5288 37.1358C53.7299 37.6211 53.8333 38.1413 53.8333 38.6666C53.8333 39.1918 53.7299 39.712 53.5288 40.1973C53.3278 40.6826 53.0332 41.1236 52.6617 41.495C52.2903 41.8664 51.8494 42.1611 51.3641 42.3621C50.8788 42.5631 50.3586 42.6666 49.8333 42.6666V46.6666C49.8333 48.8639 47.3253 50.1186 45.5667 48.7999L42.82 46.7386C41.3518 45.6377 39.6423 44.9027 37.8333 44.5946V48.3866C37.8335 49.2582 37.5185 50.1005 36.9465 50.7583C36.3745 51.416 35.5841 51.8448 34.7208 51.9656C33.8576 52.0864 32.9797 51.8911 32.2492 51.4157C31.5186 50.9403 30.9845 50.2168 30.7453 49.3786L28.652 42.0506C27.8987 41.1609 27.4084 40.0788 27.2364 38.9259C27.0643 37.773 27.2172 36.5949 27.678 35.5241C28.1387 34.4533 28.889 33.5322 29.8445 32.8644C30.7999 32.1966 31.9227 31.8086 33.0867 31.7439L37.1107 31.5199C39.0795 31.4103 40.9942 30.835 42.6973 29.8412L45.8227 28.0172ZM32.012 44.1039L33.3093 48.6466C33.3718 48.8664 33.5116 49.0563 33.7032 49.1811C33.8947 49.3059 34.1249 49.3572 34.3512 49.3255C34.5776 49.2938 34.7849 49.1813 34.9347 49.0087C35.0846 48.8361 35.167 48.6151 35.1667 48.3866V44.3732L33.0867 44.2572C32.7247 44.2371 32.3651 44.1858 32.012 44.1039ZM51.1667 38.6666C51.1667 38.3129 51.0262 37.9738 50.7761 37.7237C50.5261 37.4737 50.1869 37.3332 49.8333 37.3332V39.9999C50.1869 39.9999 50.5261 39.8594 50.7761 39.6094C51.0262 39.3593 51.1667 39.0202 51.1667 38.6666Z" fill="white"/>
</g>
<defs>
<clipPath id="clip0_322_832">
<rect width="32" height="32" fill="white" transform="translate(24.5 24)"/>
</clipPath>
</defs>
</svg>
