<svg width="48" height="48" viewBox="0 0 48 48" fill="none" xmlns="http://www.w3.org/2000/svg">
<rect x="0.5" y="0.5" width="47" height="47" rx="23.5" stroke="white" stroke-opacity="0.295743"/>
<path fill-rule="evenodd" clip-rule="evenodd" d="M31 24C31 23.7239 30.7761 23.5 30.5 23.5H18.707L21.854 20.354C21.9805 20.2275 22.0298 20.0432 21.9836 19.8704C21.9373 19.6977 21.8023 19.5627 21.6296 19.5164C21.4568 19.4701 21.2725 19.5195 21.146 19.646L17.146 23.646C17.0519 23.7398 16.9991 23.8672 16.9991 24C16.9991 24.1328 17.0519 24.2602 17.146 24.354L21.146 28.354C21.2725 28.4805 21.4568 28.5299 21.6296 28.4836C21.8023 28.4373 21.9373 28.3023 21.9836 28.1296C22.0298 27.9568 21.9805 27.7725 21.854 27.646L18.707 24.5H30.5C30.7761 24.5 31 24.2761 31 24Z" fill="white"/>
</svg>
