<svg width="48" height="48" viewBox="0 0 48 48" fill="none" xmlns="http://www.w3.org/2000/svg">
<rect x="0.5" y="0.5" width="47" height="47" rx="23.5" stroke="white" stroke-opacity="0.295743"/>
<path fill-rule="evenodd" clip-rule="evenodd" d="M17 24C17 23.7239 17.2239 23.5 17.5 23.5H29.293L26.146 20.354C25.9505 20.1585 25.9505 19.8415 26.146 19.646C26.3415 19.4505 26.6585 19.4505 26.854 19.646L30.854 23.646C30.948 23.7398 31.0009 23.8672 31.0009 24C31.0009 24.1328 30.948 24.2602 30.854 24.354L26.854 28.354C26.6585 28.5495 26.3415 28.5495 26.146 28.354C25.9505 28.1585 25.9505 27.8415 26.146 27.646L29.293 24.5H17.5C17.2239 24.5 17 24.2761 17 24Z" fill="white"/>
</svg>
