<svg width="153" height="33" viewBox="0 0 153 33" fill="none" xmlns="http://www.w3.org/2000/svg">
<path d="M30.8643 19.4004H40.7009V32.2776H30.8643V19.4004Z" fill="#86E2EF"/>
<path d="M30.733 0.0996094H45.2555C48.1002 0.0996094 50.4063 2.40572 50.4063 5.25046V17.9846H30.733V0.0996094Z" fill="#377781"/>
<path d="M0.686523 5.25046C0.686523 2.40572 2.99264 0.0996094 5.83737 0.0996094H29.3022V32.2926H0.686523V5.25046Z" fill="#2F4F4F"/>
<path fill-rule="evenodd" clip-rule="evenodd" d="M67.1662 9.54926C66.4567 8.93214 65.6449 8.44349 64.7675 8.10526C63.8847 7.76328 62.8866 7.59229 61.7731 7.59229C60.9466 7.58354 60.123 7.69207 59.3269 7.91463C58.6386 8.10376 57.9913 8.4192 57.4182 8.84486C56.8879 9.24701 56.4622 9.77092 56.1771 10.3723C55.874 11.0259 55.7232 11.7398 55.7362 12.4602C55.7362 13.1442 55.8515 13.7207 56.0822 14.1897C56.3208 14.6691 56.673 15.0828 57.1082 15.3949C57.6217 15.7595 58.1893 16.0414 58.7902 16.2302C59.4586 16.4538 60.2383 16.6687 61.1293 16.8748C61.9719 17.0657 62.7156 17.2566 63.3603 17.4475C63.924 17.6039 64.4652 17.8324 64.9704 18.1274C65.3633 18.3545 65.6952 18.6738 65.9374 19.0576C66.1517 19.416 66.2589 19.8575 66.2589 20.3822C66.2589 21.3689 65.8771 22.1046 65.1135 22.5895C64.35 23.0744 63.2921 23.3171 61.94 23.3177C60.6515 23.3177 59.4824 23.0908 58.4327 22.637C57.3831 22.1832 56.5477 21.6304 55.9268 20.9786L55.116 22.3392C56.9928 23.9779 59.2596 24.7971 61.9163 24.7969C62.7356 24.8031 63.5528 24.711 64.3502 24.5228C65.0422 24.3642 65.698 24.0767 66.2835 23.6752C66.8131 23.3058 67.2466 22.8148 67.5475 22.2435C67.8494 21.6708 68.0007 20.9947 68.0015 20.2153C68.0015 19.4517 67.8663 18.8114 67.5957 18.2943C67.3178 17.7689 66.9166 17.3186 66.4266 16.982C65.8619 16.5971 65.2425 16.2995 64.5891 16.0993C63.7893 15.8465 62.9769 15.6354 62.1552 15.4668C61.3436 15.2918 60.6395 15.1167 60.0428 14.9416C59.5248 14.8002 59.0276 14.5917 58.5636 14.3214C58.2088 14.118 57.9128 13.826 57.7046 13.4739C57.5213 13.1483 57.43 12.7307 57.4305 12.2213C57.4305 11.251 57.7725 10.4836 58.4564 9.91906C59.1404 9.35454 60.238 9.07203 61.7494 9.07148C62.7516 9.07148 63.6543 9.23864 64.4574 9.57299C65.2605 9.90733 65.9008 10.3448 66.3784 10.8853L67.1662 9.54926ZM81.9841 15.061L78.7632 22.7212L72.6068 7.71173H70.8404L77.9753 24.6537H79.4553L83.0346 16.2784L86.5894 24.6537H88.0694L95.228 7.71173H93.4142L87.2815 22.7212L84.0368 15.061L86.9952 7.83118H85.4203L83.0101 13.8445L80.6244 7.83118H79.0258L81.9841 15.061ZM101.336 24.6537V7.73546H99.6901V24.6537H101.336ZM106.18 24.6537H119.615V23.1745H108.256L119.638 9.02402V7.71173H106.371V9.19093H117.705L106.18 23.3414V24.6537ZM126.224 23.1745V16.7079H134.528V15.2999H126.224V9.19093H135.745V7.71173H124.577V24.6537H135.959V23.1745H126.224ZM152.687 24.6537V23.1745H142.88V7.71173H141.233V24.6537H152.687Z" fill="#377781"/>
</svg>
