<svg width="48" height="48" viewBox="0 0 48 48" fill="none" xmlns="http://www.w3.org/2000/svg">
<circle cx="24" cy="24" r="24" fill="#428876"/>
<path d="M38.1496 15.2238C37.1096 15.686 35.9894 15.9973 34.815 16.1388C36.0154 15.4195 36.9327 14.2828 37.369 12.9268C36.2465 13.5919 35.0037 14.0753 33.6807 14.3347C32.6242 13.2051 31.1126 12.5 29.4453 12.5C25.6957 12.5 22.9412 15.9973 23.7878 19.629C18.9652 19.3861 14.685 17.075 11.8221 13.5636C10.301 16.1718 11.0344 19.5865 13.6191 21.3151C12.6687 21.2845 11.7749 21.0227 10.992 20.5888C10.9283 23.2772 12.8574 25.7934 15.6495 26.3547C14.8336 26.5764 13.9374 26.6283 13.0271 26.4538C13.7653 28.7601 15.9136 30.4368 18.4511 30.484C16.0056 32.3989 12.9328 33.2549 9.85059 32.8918C12.4211 34.5402 15.4703 35.5 18.7483 35.5C29.5302 35.5 35.6192 26.3948 35.2513 18.2282C36.388 17.4122 37.3713 16.3888 38.1496 15.2238Z" fill="white"/>
</svg>
