<svg width="152" height="34" viewBox="0 0 152 34" fill="none" xmlns="http://www.w3.org/2000/svg">
<path d="M30.1778 20.2051H40.0144V33.0823H30.1778V20.2051Z" fill="white"/>
<path d="M30.0466 0.904297H44.569C47.4137 0.904297 49.7198 3.21041 49.7198 6.05514V18.7893H30.0466V0.904297Z" fill="white"/>
<path d="M0.00012207 6.05514C0.00012207 3.21041 2.30624 0.904297 5.15097 0.904297H28.6158V33.0973H0.00012207V6.05514Z" fill="white"/>
<path fill-rule="evenodd" clip-rule="evenodd" d="M66.4796 10.3559C65.7701 9.73878 64.9583 9.25013 64.0809 8.9119C63.1981 8.56992 62.2 8.39893 61.0865 8.39893C60.26 8.39018 59.4364 8.49871 58.6403 8.72127C57.952 8.9104 57.3048 9.22584 56.7317 9.6515C56.2014 10.0537 55.7757 10.5776 55.4906 11.1789C55.1874 11.8326 55.0366 12.5465 55.0496 13.2668C55.0496 13.9508 55.1649 14.5273 55.3956 14.9964C55.6342 15.4758 55.9864 15.8895 56.4216 16.2015C56.9352 16.5661 57.5027 16.848 58.1036 17.0368C58.7721 17.2604 59.5517 17.4753 60.4427 17.6815C61.2853 17.8724 62.029 18.0633 62.6737 18.2542C63.2374 18.4105 63.7786 18.6391 64.2838 18.9341C64.6768 19.1612 65.0086 19.4804 65.2508 19.8643C65.4652 20.2226 65.5723 20.6641 65.5723 21.1888C65.5723 22.1755 65.1905 22.9113 64.427 23.3962C63.6634 23.8811 62.6055 24.1238 61.2534 24.1243C59.9649 24.1243 58.7958 23.8974 57.7461 23.4436C56.6965 22.9898 55.8612 22.437 55.2402 21.7853L54.4294 23.1458C56.3062 24.7845 58.573 25.6038 61.2297 25.6035C62.0491 25.6097 62.8662 25.5177 63.6636 25.3294C64.3556 25.1709 65.0114 24.8833 65.5969 24.4818C66.1265 24.1124 66.56 23.6215 66.8609 23.0501C67.1628 22.4774 67.3141 21.8013 67.3149 21.0219C67.3149 20.2583 67.1797 19.618 66.9092 19.101C66.6312 18.5755 66.23 18.1252 65.7401 17.7887C65.1754 17.4038 64.5559 17.1062 63.9025 16.9059C63.1027 16.6531 62.2903 16.4421 61.4686 16.2735C60.657 16.0984 59.9529 15.9233 59.3562 15.7482C58.8382 15.6068 58.341 15.3983 57.877 15.1281C57.5222 14.9247 57.2262 14.6326 57.018 14.2805C56.8347 13.9549 56.7434 13.5374 56.7439 13.0279C56.7439 12.0576 57.0859 11.2902 57.7699 10.7257C58.4538 10.1612 59.5515 9.87867 61.0628 9.87812C62.065 9.87812 62.9677 10.0453 63.7708 10.3796C64.5739 10.714 65.2143 11.1514 65.6918 11.6919L66.4796 10.3559ZM81.2976 15.8677L78.0766 23.5279L71.9202 8.51837H70.1538L77.2887 25.4603H78.7687L82.348 17.0851L85.9028 25.4603H87.3828L94.5414 8.51837H92.7276L86.5949 23.5279L83.3502 15.8677L86.3086 8.63782H84.7337L82.3235 14.6511L79.9378 8.63782H78.3392L81.2976 15.8677ZM100.65 25.4603V8.5421H99.0035V25.4603H100.65ZM105.494 25.4603H118.928V23.9811H107.569L118.952 9.83066V8.51837H105.684V9.99757H117.019L105.494 24.148V25.4603ZM125.537 23.9811V17.5146H133.841V16.1066H125.537V9.99757H135.058V8.51837H123.891V25.4603H135.273V23.9811H125.537ZM152 25.4603V23.9811H142.193V8.51837H140.546V25.4603H152Z" fill="white"/>
</svg>
