<svg width="116" height="56" viewBox="0 0 116 56" fill="none" xmlns="http://www.w3.org/2000/svg">
<path fill-rule="evenodd" clip-rule="evenodd" d="M42.6055 0.0437141C42.5504 0.102632 40.9472 0.279205 39.043 0.436077C-5.50931 4.10634 -8.84859 9.89529 15.145 41.8644C18.2572 46.0109 18.9962 46.7694 16.7174 43.4778L13.8813 39.3812C-4.65996 12.6011 -1.17745 5.61067 31.7442 3.52281L33.7538 3.3953L32.1553 4.95326C31.2761 5.81022 30.5567 6.59276 30.5567 6.69236C30.5567 6.98439 30.205 7.06064 25.3245 7.82494C18.3043 8.92432 15.1262 9.65286 11.786 10.9285C10.1825 11.5408 9.56843 11.995 10.6604 11.761C16.1416 10.5868 28.6099 9.68424 28.2847 10.4852C28.0329 11.1052 27.6568 12.2737 27.4529 13.0687C27.2541 13.8439 27.2541 13.8439 24.2923 13.8466C-0.143039 13.87 -0.455809 20.7445 22.6148 50.7264C24.6443 53.3642 23.7055 51.749 21.3283 48.5136C8.77024 31.4212 5.1222 22.5436 9.16011 18.9012C11.31 16.9618 14.5534 16.2408 21.8066 16.0892L26.8496 15.9839L26.9667 18.0605C27.0311 19.2025 27.1359 20.4126 27.1997 20.7496C27.3016 21.2893 27.2746 21.3501 26.972 21.2599C24.7437 20.5958 14.3588 20.8351 13.6253 21.5677C13.5866 21.6063 14.7701 21.6957 16.2552 21.7663C19.3409 21.913 22.3802 22.2723 24.8932 22.7873C24.9817 22.8054 25.0676 22.823 25.151 22.84C26.9545 23.2091 27.5822 23.3375 27.9567 23.7163C28.1565 23.9185 28.2843 24.192 28.4802 24.6115C28.4972 24.6479 28.5147 24.6854 28.5328 24.7241C29.2535 26.262 30.5057 28.1284 31.4857 29.1254C32.5049 30.1626 32.369 30.2077 30.2574 29.5324C9.46685 22.8828 5.98233 25.0063 14.9933 38.834C17.5123 42.6993 22.8684 50.0137 26.5339 54.5944C28.6621 57.2537 27.9493 56.1587 24.2892 51.1466C6.41604 26.6702 7.44442 23.7535 31.1696 31.6301C41.9296 35.2023 46.0513 35.5557 51.1214 33.2701C55.4632 31.4852 58.893 27.9349 60.5171 23.5127C64.2162 13.4955 58.0047 0.728746 44.8068 0.0453562C43.6513 -0.0144741 42.6607 -0.0152042 42.6055 0.0437141Z" fill="#070429"/>
<path d="M41.6491 14.8024C41.69 14.9262 41.7293 15.0518 41.7667 15.1789C42.3376 17.12 43.5936 18.4902 43.5936 18.4902C43.5936 18.4902 41.5383 18.2618 40.739 15.1789C40.1681 13.2377 40.1681 11.6391 40.1681 11.6391V9.35547H41.3099V11.6391C41.3099 11.6391 41.3099 13.5803 41.7667 15.1789C41.7313 15.0551 41.6918 14.9293 41.6491 14.8024Z" fill="#FF1616"/>
<path d="M48.9602 17.3496C53.7559 17.007 53.8701 14.2666 53.8701 11.6404H50.4446V8.21484H39.0262V11.6404H35.6007C35.6007 14.2666 35.7149 17.007 40.5106 17.3496C41.5383 18.9481 42.9085 19.6332 43.5936 19.6332V24.2006C40.1681 24.2006 40.1681 26.4843 40.1681 26.4843H49.3028C49.3028 26.4843 49.3028 24.2006 45.8772 24.2006V19.6332C46.5624 19.6332 47.9326 18.9481 48.9602 17.3496ZM50.4446 12.7822H52.7283C52.6141 14.6092 52.2715 15.8652 49.6453 16.0935C49.9879 15.1801 50.3304 14.1524 50.4446 12.7822ZM36.7425 12.7822H39.0262C39.1404 14.1524 39.483 15.1801 39.8255 16.0935C37.3135 15.8652 36.8567 14.6092 36.7425 12.7822ZM40.739 15.1801C40.1681 13.2389 40.1681 11.6404 40.1681 11.6404V9.35668H41.3099V11.6404C41.3099 11.6404 41.3099 13.5815 41.7666 15.1801C42.3376 17.1212 43.5936 18.4914 43.5936 18.4914C43.5936 18.4914 41.5383 18.263 40.739 15.1801Z" fill="white"/>
<path d="M69.5705 21.254L67.8583 21.2058C67.3117 21.2058 66.7289 21.2178 66.1099 21.2419L65.9652 20.5908C66.3511 20.5828 66.6043 20.5426 66.7249 20.4702C66.8535 20.3979 66.9178 20.2934 66.9178 20.1567V13.6937C66.9178 13.549 66.8615 13.4405 66.749 13.3682C66.6445 13.2958 66.4315 13.2596 66.1099 13.2596L65.9532 12.6085C66.9178 12.6326 67.4805 12.6447 67.6413 12.6447L69.5705 12.5965C71.4596 12.5965 72.4041 13.2556 72.4041 14.5739C72.4041 15.4582 71.8695 16.1093 70.8004 16.5273C71.4114 16.6399 71.9298 16.8891 72.3559 17.2749C72.79 17.6527 73.007 18.1149 73.007 18.6616C73.007 19.4815 72.7136 20.1206 72.1268 20.5788C71.548 21.0289 70.6959 21.254 69.5705 21.254ZM70.704 14.8272C70.704 14.3368 70.5633 13.9711 70.2819 13.7299C70.0006 13.4887 69.6469 13.3682 69.2209 13.3682C68.7948 13.3682 68.5818 13.3963 68.5818 13.4526V16.4067C68.5979 16.4148 68.7627 16.4188 69.0762 16.4188C69.5826 16.4188 69.9805 16.2741 70.2699 15.9847C70.5593 15.6953 70.704 15.3095 70.704 14.8272ZM68.5818 19.8191C68.5818 20.2693 68.8712 20.4943 69.4499 20.4943C70.0368 20.4943 70.4829 20.3336 70.7884 20.012C71.0938 19.6825 71.2466 19.2966 71.2466 18.8545C71.2466 18.2275 71.0456 17.7733 70.6437 17.4919C70.2498 17.2106 69.8077 17.0699 69.3173 17.0699C68.835 17.0699 68.5898 17.0739 68.5818 17.082V19.8191Z" fill="#070429"/>
<path d="M78.6298 13.3561L77.1226 13.3682H76.8332C76.5036 13.3842 76.3388 13.4003 76.3388 13.4164V16.3947H78.3404C78.4369 16.3947 78.4851 16.0088 78.4851 15.2371L79.1603 15.1286L79.1242 16.7926C79.1242 17.2508 79.1362 17.7452 79.1603 18.2757L78.461 18.4083C78.461 17.9501 78.453 17.6567 78.4369 17.5281C78.4208 17.3995 78.3806 17.3352 78.3163 17.3352H76.3388V19.8191C76.3388 20.0844 76.4112 20.2572 76.5559 20.3376C76.7006 20.418 76.9457 20.4582 77.2914 20.4582H78.4248C79.51 20.4582 80.2496 19.8794 80.6435 18.7218L81.2946 18.8545C81.2946 18.9911 81.178 19.4172 80.9449 20.1326C80.7118 20.848 80.539 21.2058 80.4264 21.2058L77.6411 21.2178C77.6411 21.2178 76.9055 21.2138 75.4345 21.2058C75.0084 21.2058 74.4859 21.2178 73.867 21.2419L73.7223 20.5908C74.1081 20.5828 74.3613 20.5426 74.4819 20.4702C74.6105 20.3979 74.6748 20.2934 74.6748 20.1567V13.6937C74.6748 13.549 74.6186 13.4405 74.506 13.3682C74.4015 13.2958 74.1885 13.2596 73.867 13.2596L73.7102 12.6085C74.6748 12.6326 75.2375 12.6447 75.3983 12.6447H78.5213L80.4023 12.6568C80.4988 12.8738 80.547 13.2235 80.547 13.7058C80.547 14.1881 80.5269 14.6182 80.4867 14.996L79.9562 14.9116C79.8677 14.3569 79.719 13.959 79.51 13.7178C79.3091 13.4767 79.0156 13.3561 78.6298 13.3561Z" fill="#070429"/>
<path d="M86.7802 13.4526H86.117V20.1567C86.117 20.3095 86.1773 20.422 86.2979 20.4943C86.4185 20.5587 86.6677 20.5908 87.0455 20.5908L87.2022 21.2419C86.2376 21.2178 85.5383 21.2058 85.1042 21.2058C84.6701 21.2058 84.1436 21.2178 83.5246 21.2419L83.3799 20.5908C83.822 20.5828 84.1114 20.5426 84.2481 20.4702C84.3847 20.3979 84.4531 20.2934 84.4531 20.1567V13.4526H84.0552C83.3236 13.4526 82.8614 13.545 82.6685 13.7299C82.4997 13.8666 82.355 14.2725 82.2344 14.9477L81.6798 14.9598C81.5994 14.5659 81.5592 14.1559 81.5592 13.7299C81.5592 13.3039 81.6074 12.91 81.7039 12.5482C82.0174 12.6125 82.3711 12.6447 82.765 12.6447H87.9981C88.5366 12.6447 88.9426 12.6125 89.2159 12.5482C89.2641 13.1029 89.2882 13.545 89.2882 13.8746C89.2882 14.1961 89.244 14.5699 89.1556 14.996L88.5889 14.9116C88.5005 14.2685 88.3558 13.8746 88.1548 13.7299C87.8976 13.545 87.4394 13.4526 86.7802 13.4526Z" fill="#070429"/>
<path d="M90.7909 18.4204C90.9677 19.168 91.2169 19.6985 91.5384 20.012C91.86 20.3255 92.278 20.4823 92.7924 20.4823C93.3069 20.4823 93.6807 20.3617 93.9138 20.1206C94.1469 19.8714 94.2635 19.5659 94.2635 19.2042C94.2635 18.8424 94.1188 18.5249 93.8294 18.2516C93.5481 17.9783 93.2024 17.7411 92.7924 17.5402C92.3905 17.3392 91.9846 17.1262 91.5746 16.9011C91.1727 16.676 90.827 16.3826 90.5376 16.0209C90.2563 15.6511 90.1156 15.2251 90.1156 14.7428C90.1156 14.0032 90.397 13.4445 90.9597 13.0667C91.5224 12.6889 92.2338 12.5 93.0939 12.5C93.9621 12.5 94.7699 12.6768 95.5175 13.0305C95.5979 13.1913 95.6381 13.533 95.6381 14.0555C95.6381 14.5699 95.618 14.9719 95.5778 15.2612L94.8182 15.2371C94.7619 13.967 94.1309 13.332 92.9251 13.332C92.6035 13.332 92.3383 13.4285 92.1293 13.6214C91.9203 13.8063 91.8158 14.0474 91.8158 14.3448C91.8158 14.6423 91.9162 14.9035 92.1172 15.1286C92.3262 15.3537 92.5834 15.5466 92.8889 15.7074C93.2024 15.8601 93.536 16.041 93.8897 16.25C94.2514 16.451 94.585 16.6559 94.8905 16.8649C95.204 17.0659 95.4612 17.3352 95.6622 17.6728C95.8712 18.0104 95.9757 18.3842 95.9757 18.7942C95.9757 19.5177 95.7024 20.1246 95.1558 20.6149C94.6172 21.1053 93.9219 21.3505 93.0698 21.3505C92.2177 21.3505 91.2691 21.1615 90.2241 20.7837C90.1839 20.6551 90.1237 20.3416 90.0433 19.8432C89.9709 19.3448 89.9187 18.9268 89.8865 18.5892L90.7909 18.4204Z" fill="#070429"/>
<path d="M100.304 21.2299L98.4109 21.2058C97.9768 21.2058 97.4543 21.2178 96.8434 21.2419L96.6987 20.5908C97.0846 20.5828 97.3378 20.5426 97.4583 20.4702C97.587 20.3979 97.6513 20.2934 97.6513 20.1567L97.6995 13.6937C97.6995 13.549 97.6432 13.4405 97.5307 13.3682C97.4262 13.2958 97.2132 13.2596 96.8916 13.2596L96.7349 12.6085C97.6995 12.6326 98.3587 12.6447 98.7124 12.6447C99.0741 12.6447 99.5604 12.6326 100.171 12.6085L100.316 13.2596C99.9302 13.2677 99.673 13.3079 99.5443 13.3802C99.4238 13.4526 99.3635 13.5571 99.3635 13.6937V19.8312C99.3635 20.2572 99.5604 20.4702 99.9543 20.4702H101.088C102.173 20.4702 102.912 19.8915 103.306 18.7339L103.958 18.8665C103.958 19.0032 103.841 19.4292 103.608 20.1447C103.375 20.8521 103.202 21.2058 103.089 21.2058L100.304 21.2299Z" fill="#070429"/>
<path d="M106.825 13.6937V20.1567C106.825 20.3014 106.878 20.4099 106.982 20.4823C107.095 20.5546 107.312 20.5908 107.633 20.5908L107.79 21.2419C106.825 21.2178 106.166 21.2058 105.812 21.2058C105.459 21.2058 104.972 21.2178 104.353 21.2419L104.209 20.5908C104.595 20.5828 104.848 20.5426 104.968 20.4702C105.097 20.3979 105.161 20.2934 105.161 20.1567V13.6937C105.161 13.549 105.105 13.4405 104.992 13.3682C104.888 13.2958 104.675 13.2596 104.353 13.2596L104.197 12.6085C105.161 12.6326 105.82 12.6447 106.174 12.6447C106.536 12.6447 107.022 12.6326 107.633 12.6085L107.778 13.2596C107.392 13.2677 107.135 13.3079 107.006 13.3802C106.886 13.4526 106.825 13.5571 106.825 13.6937Z" fill="#070429"/>
<path d="M111.858 12.5965C112.807 12.5965 113.578 12.7934 114.173 13.1873C114.776 13.5812 115.078 14.172 115.078 14.9598C115.078 15.3858 114.989 15.7637 114.812 16.0932C114.636 16.4148 114.394 16.668 114.089 16.8529C113.494 17.2227 112.795 17.4075 111.991 17.4075C111.766 17.4075 111.561 17.3874 111.376 17.3472C111.287 17.2749 111.243 17.1624 111.243 17.0096C111.243 16.8569 111.275 16.7444 111.34 16.672C111.468 16.6961 111.637 16.7082 111.846 16.7082C112.328 16.7082 112.718 16.5514 113.016 16.2379C113.313 15.9164 113.462 15.4702 113.462 14.8995C113.462 13.8867 112.871 13.3802 111.689 13.3802C111.247 13.3802 111.026 13.4084 111.026 13.4646V20.1567C111.026 20.3095 111.099 20.422 111.243 20.4943C111.396 20.5587 111.713 20.5908 112.196 20.5908L112.353 21.2419C111.388 21.2178 110.668 21.2058 110.194 21.2058C109.72 21.2058 109.173 21.2178 108.554 21.2419L108.41 20.5908C108.796 20.5828 109.049 20.5426 109.169 20.4702C109.298 20.3979 109.362 20.2934 109.362 20.1567V13.6937C109.362 13.549 109.306 13.4405 109.193 13.3682C109.089 13.2958 108.876 13.2596 108.554 13.2596L108.398 12.6085C109.459 12.6326 110.021 12.6447 110.086 12.6447C111.107 12.6125 111.697 12.5965 111.858 12.5965Z" fill="#070429"/>
<path d="M63.0204 29.7873C63.2053 30.5689 63.4658 31.1235 63.802 31.4513C64.1381 31.779 64.5751 31.9429 65.113 31.9429C65.6508 31.9429 66.0416 31.8169 66.2853 31.5647C66.529 31.3042 66.6509 30.9849 66.6509 30.6067C66.6509 30.2285 66.4996 29.8966 66.1971 29.6108C65.9029 29.3251 65.5416 29.0772 65.113 28.8671C64.6928 28.657 64.2684 28.4343 63.8398 28.199C63.4196 27.9636 63.0582 27.6569 62.7557 27.2787C62.4615 26.8921 62.3145 26.4467 62.3145 25.9425C62.3145 25.1693 62.6086 24.5853 63.1969 24.1903C63.7851 23.7953 64.5289 23.5978 65.4281 23.5978C66.3357 23.5978 67.1803 23.7827 67.9619 24.1525C68.0459 24.3205 68.088 24.6777 68.088 25.224C68.088 25.7618 68.0669 26.182 68.0249 26.4846L67.2308 26.4593C67.1719 25.1315 66.5122 24.4676 65.2516 24.4676C64.9155 24.4676 64.6381 24.5685 64.4196 24.7702C64.2011 24.9634 64.0919 25.2156 64.0919 25.5265C64.0919 25.8375 64.1969 26.1106 64.407 26.3459C64.6255 26.5812 64.8945 26.7829 65.2138 26.951C65.5416 27.1106 65.8903 27.2997 66.2601 27.5182C66.6383 27.7283 66.987 27.9426 67.3064 28.1611C67.6341 28.3712 67.9031 28.6528 68.1132 29.0057C68.3317 29.3587 68.4409 29.7495 68.4409 30.1781C68.4409 30.9344 68.1552 31.5689 67.5837 32.0816C67.0207 32.5942 66.2937 32.8505 65.4029 32.8505C64.5121 32.8505 63.5204 32.6531 62.4279 32.2581C62.3859 32.1236 62.3229 31.7958 62.2388 31.2748C62.1632 30.7538 62.1086 30.3168 62.075 29.9638L63.0204 29.7873Z" fill="#FF1616"/>
<path d="M70.886 23.7491L72.6382 23.7113L72.7516 24.392C72.3062 24.392 72.0289 24.4214 71.9197 24.4802C71.8188 24.539 71.7684 24.6147 71.7684 24.7071C71.7684 24.7996 71.7894 24.8962 71.8314 24.9971L73.8862 30.342L75.1216 26.7997L74.6173 25.4257C74.4745 25.0475 74.319 24.7828 74.1509 24.6315C73.9828 24.4718 73.7475 24.392 73.445 24.392L73.3063 23.7239C74.1467 23.7407 74.798 23.7491 75.2602 23.7491C75.7224 23.7491 76.3443 23.7365 77.1259 23.7113L77.2393 24.392C76.7939 24.392 76.5166 24.4214 76.4074 24.4802C76.3065 24.539 76.2561 24.6147 76.2561 24.7071C76.2561 24.7996 76.2771 24.8962 76.3191 24.9971L78.3739 30.342L80.1135 25.3626C80.1471 25.2702 80.1639 25.1819 80.1639 25.0979C80.1639 24.9214 80.0589 24.7617 79.8488 24.6189C79.6387 24.476 79.3151 24.4004 78.8781 24.392L78.752 23.7113L80.7816 23.7491L82.3195 23.7113L82.4078 24.392C82.1136 24.4172 81.8741 24.4886 81.6892 24.6063C81.5043 24.7239 81.3699 24.8542 81.2858 24.9971C81.2018 25.1315 81.1093 25.3374 81.0085 25.6147L78.3739 32.6993H77.3024L75.6006 28.0981L73.8862 32.6993H72.8147L70.1296 25.4257C69.9868 25.0475 69.8313 24.7828 69.6632 24.6315C69.4951 24.4718 69.2598 24.392 68.9573 24.392L68.8186 23.7113C69.2052 23.7365 69.8943 23.7491 70.886 23.7491Z" fill="#FF1616"/>
<path d="M85.4095 24.8458V31.6026C85.4095 31.7538 85.4642 31.8673 85.5734 31.9429C85.6911 32.0186 85.918 32.0564 86.2541 32.0564L86.418 32.7371C85.4095 32.7119 84.7204 32.6993 84.3506 32.6993C83.9809 32.6993 83.4724 32.7119 82.8253 32.7371L82.6741 32.0564C83.0774 32.048 83.3422 32.0059 83.4682 31.9303C83.6027 31.8547 83.6699 31.7454 83.6699 31.6026V24.8458C83.6699 24.6945 83.6111 24.5811 83.4934 24.5054C83.3842 24.4298 83.1615 24.392 82.8253 24.392L82.6614 23.7113C83.6699 23.7365 84.359 23.7491 84.7288 23.7491C85.107 23.7491 85.6154 23.7365 86.2541 23.7113L86.4054 24.392C86.002 24.4004 85.7331 24.4424 85.5986 24.518C85.4726 24.5937 85.4095 24.7029 85.4095 24.8458Z" fill="#FF1616"/>
<path d="M92.4108 24.5937H91.7175V31.6026C91.7175 31.7622 91.7805 31.8799 91.9066 31.9555C92.0326 32.0228 92.2932 32.0564 92.6882 32.0564L92.852 32.7371C91.8436 32.7119 91.1124 32.6993 90.6586 32.6993C90.2048 32.6993 89.6543 32.7119 89.0072 32.7371L88.856 32.0564C89.3182 32.048 89.6207 32.0059 89.7636 31.9303C89.9065 31.8547 89.9779 31.7454 89.9779 31.6026V24.5937H89.5619C88.7971 24.5937 88.3139 24.6903 88.1122 24.8836C87.9357 25.0265 87.7845 25.4509 87.6584 26.1568L87.0785 26.1694C86.9945 25.7576 86.9525 25.329 86.9525 24.8836C86.9525 24.4382 87.0029 24.0264 87.1037 23.6482C87.4315 23.7155 87.8013 23.7491 88.2131 23.7491H93.684C94.2471 23.7491 94.6715 23.7155 94.9572 23.6482C95.0076 24.2281 95.0328 24.6903 95.0328 25.0349C95.0328 25.371 94.9866 25.7618 94.8942 26.2072L94.3017 26.119C94.2093 25.4467 94.058 25.0349 93.8479 24.8836C93.579 24.6903 93.0999 24.5937 92.4108 24.5937Z" fill="#FF1616"/>
<path d="M100.625 24.4802C99.6586 24.4802 98.9148 24.8206 98.3938 25.5013C97.8812 26.1736 97.6248 27.0476 97.6248 28.1233C97.6248 29.1906 97.9274 30.094 98.5325 30.8336C99.1375 31.5731 99.9233 31.9429 100.89 31.9429C102.176 31.9429 103.079 31.3 103.6 30.0142L104.457 30.2033C104.457 30.2789 104.348 30.6235 104.129 31.237C103.911 31.8421 103.777 32.1404 103.726 32.132C102.852 32.611 101.823 32.8505 100.638 32.8505C99.1754 32.8505 97.9778 32.443 97.045 31.6278C96.1205 30.8126 95.6583 29.7369 95.6583 28.4007C95.6583 26.8879 96.1373 25.7114 97.0954 24.871C98.0618 24.0222 99.2972 23.5978 100.802 23.5978C101.465 23.5978 102.184 23.6902 102.957 23.8751C103.352 23.9508 103.709 24.0138 104.029 24.0642C104.121 24.2575 104.167 24.5895 104.167 25.0601C104.167 25.5307 104.142 26.0097 104.092 26.4972L103.184 26.3963C103.125 25.9005 103.008 25.5223 102.831 25.2618C102.47 24.7407 101.734 24.4802 100.625 24.4802Z" fill="#FF1616"/>
<path d="M107.893 24.8458V27.6695H112.066V24.8458C112.066 24.6945 112.007 24.5811 111.889 24.5054C111.78 24.4298 111.557 24.392 111.221 24.392L111.057 23.7113C112.066 23.7365 112.755 23.7491 113.125 23.7491C113.495 23.7491 114.003 23.7365 114.65 23.7113L114.801 24.392C114.398 24.4004 114.129 24.4424 113.995 24.518C113.869 24.5937 113.805 24.7029 113.805 24.8458V31.6026C113.805 31.7538 113.86 31.8673 113.969 31.9429C114.087 32.0186 114.314 32.0564 114.65 32.0564L114.814 32.7371C113.805 32.7119 113.116 32.6993 112.747 32.6993C112.377 32.6993 111.868 32.7119 111.221 32.7371L111.07 32.0564C111.473 32.048 111.738 32.0059 111.864 31.9303C111.999 31.8547 112.066 31.7454 112.066 31.6026V28.6402H107.893V31.6026C107.893 31.7538 107.948 31.8673 108.057 31.9429C108.175 32.0186 108.402 32.0564 108.738 32.0564L108.902 32.7371C107.893 32.7119 107.204 32.6993 106.834 32.6993C106.465 32.6993 105.956 32.7119 105.309 32.7371L105.158 32.0564C105.561 32.048 105.826 32.0059 105.952 31.9303C106.086 31.8547 106.154 31.7454 106.154 31.6026V24.8458C106.154 24.6945 106.095 24.5811 105.977 24.5054C105.868 24.4298 105.645 24.392 105.309 24.392L105.145 23.7113C106.154 23.7365 106.843 23.7491 107.213 23.7491C107.591 23.7491 108.099 23.7365 108.738 23.7113L108.889 24.392C108.486 24.4004 108.217 24.4424 108.082 24.518C107.956 24.5937 107.893 24.7029 107.893 24.8458Z" fill="#FF1616"/>
</svg>
