<svg width="123" height="48" viewBox="0 0 123 48" fill="none" xmlns="http://www.w3.org/2000/svg">
<path fill-rule="evenodd" clip-rule="evenodd" d="M29.6127 0.177002C22.7625 0.810046 17.9219 2.40763 12.8977 5.69362C9.86468 7.67739 6.41733 10.8552 5.15183 12.8338C5.00999 13.0557 4.744 13.4043 4.56081 13.6084C3.91134 14.332 3.94835 14.3744 5.19144 14.3319C7.3669 14.2574 9.62255 14.8513 10.6054 15.7572C11.9095 16.9592 12.2387 19.367 11.2967 20.8132C10.9605 21.3292 10.9874 21.4098 11.737 22.136C13.9953 24.3238 13.3765 28.5165 10.6151 29.7378C9.43598 30.2592 8.73511 30.3333 4.31743 30.4024C0.923806 30.4556 0.863129 30.4693 1.44506 31.0512C1.57608 31.1822 1.80931 31.5704 1.96342 31.9139C3.18332 34.633 6.77627 39.1112 10.006 41.9383C11.0119 42.8189 11.0907 42.8819 12.0765 43.5955C20.8526 49.948 29.8995 49.122 35.6811 41.44C37.2865 39.3069 40.7508 33.1136 40.8846 32.1375C40.9582 31.6007 40.4881 30.9427 38.6458 29.0037C38.2166 28.552 37.6531 27.9216 37.3937 27.6027C36.4939 26.4969 36.4763 26.506 34.4014 29.1475C33.1389 30.7548 25.8506 39.0902 25.7743 39.0139C25.7567 38.9963 25.9283 38.6729 26.1557 38.2955C27.4289 36.1825 28.0685 35.1397 28.5954 34.3177C28.919 33.8129 29.3745 33.0737 29.6079 32.6752C29.8411 32.2766 30.171 31.7332 30.3407 31.4675C30.5105 31.2018 30.718 30.85 30.802 30.6856C30.8858 30.5213 31.1651 30.0647 31.4225 29.6711C31.9589 28.8507 34.0842 25.3614 34.4405 24.716L34.679 24.2843L34.199 23.7616C33.935 23.474 33.3277 22.7682 32.8494 22.1931C32.3712 21.6181 31.9364 21.0999 31.8832 21.0417C31.8301 20.9836 31.5285 20.61 31.2129 20.2114C30.8973 19.8129 30.4735 19.2833 30.2709 19.0347C29.7699 18.4197 29.7752 18.4132 30.8446 18.3424C33.4841 18.1676 33.3565 18.1254 34.5176 19.557C35.0349 20.1947 35.6657 20.9724 35.9195 21.2852C36.45 21.9392 36.6541 21.9886 36.9714 21.5399C37.9301 20.1845 39.3219 18.5041 39.5745 18.3971C39.9184 18.2515 42.946 18.3417 42.946 18.4976C42.946 18.6143 41.1029 21.0564 40.1942 22.1438C39.8166 22.5955 39.372 23.1632 39.206 23.4054C39.0401 23.6475 38.8355 23.9029 38.7513 23.9728C38.4051 24.2601 38.571 24.5316 40.1441 26.2522C40.4895 26.63 40.9895 27.2123 41.2552 27.5462C42.2954 28.8534 42.1807 28.7501 42.3709 28.5517C42.4637 28.4549 42.9136 27.2732 43.3707 25.9257C47.9872 12.3143 45.935 3.58097 37.5337 1.08512C35.4317 0.460674 31.4645 0.00579466 29.6127 0.177002ZM27.8011 14.5817C28.4166 14.8536 28.4402 14.9041 28.1645 15.3563C27.9359 15.7313 27.8998 15.735 27.3148 15.4423C26.8229 15.1962 26.8183 15.1966 26.0591 15.5378C25.4252 15.8226 25.4979 15.8373 25.2632 15.3772C25.0296 14.9192 25.0522 14.864 25.5855 14.5916C26.424 14.1632 26.8496 14.1613 27.8011 14.5817ZM2.16187 17.3537L1.98023 17.7813C1.98023 17.7813 1.81096 18.2659 1.60448 18.6991C0.605641 20.7951 0.332791 20.6162 4.48013 20.5834C8.20294 20.5539 8.01849 20.6005 8.34854 19.6065C8.87173 18.0302 7.8898 17.2098 5.4098 17.1509C4.6127 17.132 3.59666 17.103 3.15183 17.0865L2.34313 17.0564L2.16187 17.3537ZM22.8166 18.6655C23.4886 20.6152 23.4998 20.5504 22.4506 20.7958C20.8432 21.1715 19.5249 21.7602 18.7324 22.456C18.1078 23.0045 18.1152 22.954 18.1138 26.6076C18.1121 30.818 18.2912 30.3563 16.6602 30.3563C15.7769 30.3563 15.3019 30.3196 15.2575 30.2479C15.119 30.0237 15.097 18.6115 15.235 18.4971C15.3817 18.3754 17.8169 18.2993 17.9973 18.4109C18.0729 18.4576 18.1151 18.7415 18.1151 19.2026C18.1151 20.0757 18.2584 20.1332 19.0333 19.5717C19.4941 19.2379 21.132 18.4057 21.8723 18.1295C22.4683 17.9071 22.5763 17.9684 22.8166 18.6655ZM28.1889 18.5931C28.2145 18.7127 28.2084 21.3974 28.1753 24.5592L28.1151 30.308L26.69 30.3348L25.2649 30.3615L25.251 29.9C25.2153 28.7136 25.2032 18.5121 25.2375 18.4481C25.3514 18.2352 28.1418 18.3722 28.1889 18.5931ZM0.65424 23.3051C0.536269 23.3526 0.417042 23.4911 0.389312 23.6131C0.361583 23.7349 0.296172 24.0303 0.243902 24.2694C0.117138 24.8489 0.117332 27.324 0.244095 27.5608C0.376269 27.8077 7.09347 27.8503 7.88787 27.6093C10.1294 26.929 10.3894 24.1868 8.2869 23.4001C7.72458 23.1897 1.14458 23.1078 0.65424 23.3051Z" fill="#F44607"/>
<path d="M62.6976 20.0943C63.5764 20.0943 64.3523 20.2659 65.0251 20.6092C65.7117 20.9525 66.2472 21.4812 66.6317 22.1952C67.0162 22.8955 67.2085 23.8018 67.2085 24.9141V31.2169H64.6338V25.2437C64.6338 24.2687 64.4209 23.5409 63.9953 23.0603C63.5696 22.5797 62.9585 22.3394 62.1621 22.3394C61.5991 22.3394 61.0979 22.463 60.6585 22.7102C60.2328 22.9573 59.8964 23.3212 59.6492 23.8018C59.4158 24.2824 59.299 24.8935 59.299 25.635V31.2169H56.7244V25.2437C56.7244 24.2687 56.5115 23.5409 56.0858 23.0603C55.6602 22.5797 55.0491 22.3394 54.2527 22.3394C53.6897 22.3394 53.1885 22.463 52.7491 22.7102C52.3234 22.9573 51.9869 23.3212 51.7398 23.8018C51.5063 24.2824 51.3896 24.8935 51.3896 25.635V31.2169H48.8149V20.2179H51.266V23.1427L50.8335 22.2776C51.2042 21.5636 51.7398 21.0212 52.4401 20.6504C53.1541 20.2797 53.9643 20.0943 54.8706 20.0943C55.9005 20.0943 56.793 20.3483 57.5483 20.8564C58.3172 21.3645 58.8253 22.1334 59.0725 23.1633L58.0632 22.8131C58.4202 21.9893 59.0107 21.3301 59.8346 20.8358C60.6585 20.3415 61.6128 20.0943 62.6976 20.0943Z" fill="#033947"/>
<path d="M77.3781 31.2169V28.9924L77.2339 28.5186V24.6257C77.2339 23.8705 77.0074 23.2869 76.5542 22.8749C76.1011 22.4493 75.4145 22.2364 74.4945 22.2364C73.8766 22.2364 73.2655 22.3325 72.6613 22.5248C72.0709 22.717 71.5697 22.9848 71.1577 23.3281L70.1484 21.4537C70.7389 21.0006 71.4392 20.6641 72.2494 20.4444C73.0733 20.211 73.9246 20.0943 74.8035 20.0943C76.3963 20.0943 77.6253 20.4788 78.4904 21.2477C79.3692 22.003 79.8086 23.177 79.8086 24.7699V31.2169H77.3781ZM73.9178 31.3611C73.0939 31.3611 72.373 31.2238 71.755 30.9492C71.1371 30.6608 70.6565 30.2694 70.3132 29.7751C69.9836 29.267 69.8189 28.6972 69.8189 28.0655C69.8189 27.4476 69.9631 26.8914 70.2514 26.3971C70.5535 25.9028 71.041 25.5114 71.7138 25.2231C72.3867 24.9347 73.2792 24.7905 74.3915 24.7905H77.5841V26.5001H74.5769C73.6981 26.5001 73.1076 26.6443 72.8055 26.9326C72.5034 27.2073 72.3524 27.5506 72.3524 27.9625C72.3524 28.4294 72.5377 28.8001 72.9085 29.0748C73.2792 29.3494 73.7942 29.4867 74.4533 29.4867C75.0849 29.4867 75.6479 29.3425 76.1423 29.0542C76.6504 28.7658 77.0142 28.3401 77.2339 27.7771L77.6665 29.3219C77.4193 29.9673 76.9731 30.4685 76.3277 30.8256C75.696 31.1826 74.8927 31.3611 73.9178 31.3611Z" fill="#033947"/>
<path d="M83.2159 31.2169V20.2179H85.667V23.2457L85.3786 22.36C85.7082 21.6185 86.2231 21.0555 86.9234 20.671C87.6375 20.2865 88.5232 20.0943 89.5805 20.0943V22.5454C89.4707 22.5179 89.3677 22.5042 89.2716 22.5042C89.1754 22.4905 89.0793 22.4836 88.9832 22.4836C88.0082 22.4836 87.2324 22.772 86.6557 23.3487C86.0789 23.9117 85.7906 24.7562 85.7906 25.8822V31.2169H83.2159Z" fill="#033947"/>
<path d="M93.9686 28.7658L94.0304 25.532L99.7771 20.2179H102.867L97.9851 25.1201L96.6256 26.2529L93.9686 28.7658ZM91.8676 31.2169V15.9336H94.4423V31.2169H91.8676ZM100.168 31.2169L96.1519 26.2529L97.7791 24.1932L103.299 31.2169H100.168Z" fill="#033947"/>
<path d="M109.793 31.3611C108.571 31.3611 107.5 31.1208 106.58 30.6402C105.673 30.1458 104.966 29.473 104.458 28.6216C103.964 27.7703 103.716 26.8022 103.716 25.7174C103.716 24.6189 103.957 23.6508 104.437 22.8131C104.932 21.9618 105.605 21.2958 106.456 20.8152C107.321 20.3346 108.303 20.0943 109.401 20.0943C110.472 20.0943 111.427 20.3277 112.264 20.7946C113.102 21.2615 113.761 21.9206 114.242 22.772C114.722 23.6233 114.963 24.6257 114.963 25.7792C114.963 25.889 114.956 26.0126 114.942 26.1499C114.942 26.2873 114.935 26.4177 114.921 26.5413H105.756V24.8317H113.562L112.553 25.3672C112.567 24.7356 112.436 24.1794 112.161 23.6988C111.887 23.2182 111.509 22.8406 111.029 22.566C110.562 22.2913 110.019 22.154 109.401 22.154C108.77 22.154 108.214 22.2913 107.733 22.566C107.266 22.8406 106.895 23.2251 106.621 23.7194C106.36 24.2 106.229 24.7699 106.229 25.429V25.841C106.229 26.5001 106.38 27.0837 106.683 27.5918C106.985 28.0998 107.41 28.4912 107.96 28.7658C108.509 29.0405 109.14 29.1778 109.855 29.1778C110.472 29.1778 111.029 29.0816 111.523 28.8894C112.017 28.6972 112.457 28.3951 112.841 27.9831L114.221 29.5691C113.727 30.1458 113.102 30.5921 112.347 30.908C111.605 31.2101 110.754 31.3611 109.793 31.3611Z" fill="#033947"/>
<path d="M117.889 31.2169C117.889 31.2169 117.889 28.8757 117.889 27.6536V17.7874H120.464V27.5918C120.464 28.1136 120.464 30.908 120.464 31.2169H117.889ZM116.076 22.36V20.3003H122.289V22.36H116.076Z" fill="#033947"/>
</svg>
